<?xml version="1.0" encoding="utf-8"?><svg id="Capa_1" xmlns="http://www.w3.org/2000/svg" version="1.1" viewBox="0 0 180 129.6"><defs><style>
      .st0 {
        fill: #028a39;
      }

      .st1 {
        fill: #ef8f06;
      }

      .st2 {
        fill: #fff;
      }

      .st3 {
        fill: #edecec;
      }

      .st4 {
        fill: #da0812;
      }

      .st5 {
        fill: #003d56;
      }

      .st6 {
        fill: #196198;
      }

      .st7 {
        fill: #0580c3;
      }

      .st8 {
        fill: gold;
      }

      .st9 {
        fill: #0d3d63;
      }

      .st10 {
        fill: #519e4f;
      }

      .st11 {
        fill: #2fae96;
      }

      .st12 {
        fill: #bce3f9;
      }
    </style></defs><path class="st7" d="M57.51,80.18c.45,0,.95.07,1.5.17.57.11,1.11.26,1.58.45.51.19.93.4,1.3.62,1.14.69,1.37,1.59,1.39,2.12.9-1.45,1.75-2.68,2.55-3.64,1.66-2.02,2.25-2.48,2.89-2.72.39-.15.82-.18,1.23-.08,1.24.29,2.38.92,3.43,1.87,1,.91,1.75,1.94,2.24,3.06.13.3.19.63.18.95.43-.3.88-.59,1.33-.87,1.06-.66,2.13-1.23,3.21-1.7,2.78-1.2,5.26-1.04,7.02.3.77.59,1.4,1.23,1.85,1.9v.03c1.13-1.08,2.33-2.03,3.6-2.81,1.82-1.13,3.65-1.7,5.43-1.7.16,0,.32.02.47.05.53.12,1.09.34,1.68.67.53.29,1.04.63,1.51,1.01.25.2.49.4.7.61.72-.42,1.59-.33,2.66-.11.57.11,1.11.26,1.58.45.51.19.93.4,1.3.62,1.05.64,1.33,1.46,1.38,2.01,1.26-1.88,2.47-3.63,3.63-5.18.47-.63,1.26-.95,2.03-.82,1.12.18,2.15.48,3.07.89.15.06.3.14.45.21,5.18-4.42,9.43-9.91,12.4-16.11H43.1c3.35,7.03,8.32,13.1,14.41,17.77v-.02h0Z" /><path class="st5" d="M124.45,72.75l-17.59-10.44v1l16.03,11.2c.54-.58,1.06-1.16,1.56-1.77h0Z" /><path class="st1" d="M125.4,71.5l-17.33-9.19h-1.2l17.55,10.47c.35-.41.67-.84,1.01-1.26h0l-.03-.02Z" /><path class="st5" d="M51.19,74.45l15.29-11.04v-.66l-16.83,9.94c.5.6,1.02,1.18,1.55,1.77h0,0Z" /><path class="st1" d="M49.71,72.75l16.83-10.04h-1.29l-16.55,8.78c.34.42.66.84,1.01,1.26Z" /><path class="st7" d="M76.65,104.41c0,.48-.14.95-.43,1.4-.28.45-.68.9-1.18,1.35s-1.1.92-1.8,1.39c-.69.48-1.44.98-2.25,1.51-.37.24-.68.46-.94.65s-.48.37-.66.55c-.19.18-.35.35-.49.51-.14.17-.27.34-.39.53,1.06,0,2.11-.16,3.17-.48,1.05-.32,1.95-.73,2.71-1.25.17.18.31.38.41.61.06.14.11.29.16.44.05.16.07.31.07.47,0,.26-.07.47-.22.66-.13.11-.32.2-.57.26-.24.06-.53.11-.86.14s-.69.05-1.07.05h-2.38c-.4,0-.78.02-1.14.06s-.7.09-1.01.17c-.31.08-.57.18-.78.31-.32-.11-.61-.27-.86-.49-.26-.22-.44-.45-.55-.7.08-.29.22-.56.42-.82.2-.25.47-.51.8-.78s.76-.57,1.26-.88c.5-.32,1.1-.69,1.79-1.12.77-.48,1.46-.94,2.08-1.36s1.15-.83,1.58-1.21c.43-.39.76-.77.99-1.15.23-.38.35-.76.35-1.15,0-.49-.17-.88-.5-1.16-.33-.28-.77-.42-1.31-.42-.38,0-.75.07-1.11.2-.36.14-.67.32-.95.56s-.5.51-.67.82-.26.63-.26.97c0,.25.05.48.15.67.1.2.25.39.47.6-.19.03-.36.05-.52.05-.32,0-.61-.04-.87-.12s-.49-.19-.68-.33c-.18-.13-.34-.3-.45-.5-.11-.19-.16-.4-.16-.63,0-.38.15-.75.44-1.09.29-.35.67-.65,1.15-.91s1.02-.47,1.62-.63,1.21-.23,1.84-.23c.54,0,1.04.06,1.49.18s.83.29,1.15.52.56.49.73.8c.17.31.26.65.26,1.02l-.03-.04h0ZM79.33,113.36c-.48-.07-.92-.18-1.32-.32-.4-.15-.75-.35-1.03-.6s-.51-.57-.67-.95c-.17-.38-.25-.84-.25-1.38,0-.61.11-1.25.34-1.9s.54-1.29.94-1.91.88-1.21,1.43-1.76c.55-.56,1.15-1.04,1.8-1.46s1.33-.75,2.05-1,1.45-.37,2.19-.37c.56,0,1.03.08,1.44.23.4.16.74.37,1.01.65s.47.61.61,1c.13.39.2.81.2,1.26,0,.59-.1,1.22-.29,1.87-.2.67-.48,1.31-.82,1.92-.36.62-.79,1.22-1.3,1.79s-1.09,1.07-1.74,1.5-1.36.78-2.12,1.04-1.59.39-2.46.39c0,0-.01,0-.01,0ZM78.53,110.74c0,.67.16,1.15.48,1.42.32.28.78.45,1.39.53.6,0,1.16-.16,1.7-.48.54-.32,1.03-.72,1.48-1.21.45-.49.86-1.04,1.22-1.64s.67-1.2.92-1.79c.25-.59.44-1.16.58-1.69.13-.53.2-.97.2-1.32,0-.54-.08-.99-.25-1.33-.17-.34-.44-.55-.82-.62-.61.06-1.2.24-1.78.54s-1.12.68-1.63,1.13c-.51.45-.98.97-1.4,1.53-.42.57-.79,1.14-1.1,1.73-.31.58-.55,1.15-.72,1.7-.17.55-.26,1.04-.26,1.47v.03h-.01ZM97.4,104.41c0,.48-.14.95-.43,1.4s-.68.9-1.18,1.35-1.1.92-1.8,1.39c-.69.48-1.44.98-2.25,1.51-.37.24-.68.46-.94.65s-.48.37-.66.55c-.19.18-.35.35-.49.51-.14.17-.27.34-.39.53,1.06,0,2.11-.16,3.17-.48s1.95-.73,2.71-1.25c.17.18.31.38.41.61.06.14.11.29.16.44.05.16.07.31.07.47,0,.26-.07.47-.22.66-.13.11-.32.2-.57.26-.24.06-.53.11-.86.14s-.69.05-1.07.05h-2.38c-.4,0-.78.02-1.14.06s-.7.09-1.01.17c-.31.08-.57.18-.78.31-.32-.11-.61-.27-.86-.49-.26-.22-.44-.45-.55-.7.08-.29.22-.56.42-.82.2-.25.47-.51.8-.78s.76-.57,1.26-.88c.5-.32,1.1-.69,1.79-1.12.77-.48,1.46-.94,2.08-1.36s1.15-.83,1.58-1.21c.43-.39.76-.77.99-1.15.23-.38.35-.76.35-1.15,0-.49-.17-.88-.5-1.16-.33-.28-.77-.42-1.31-.42-.38,0-.75.07-1.11.2-.36.14-.67.32-.95.56s-.5.51-.67.82-.26.63-.26.97c0,.25.05.48.15.67.1.2.25.39.47.6-.19.03-.36.05-.52.05-.32,0-.61-.04-.87-.12s-.49-.19-.68-.33c-.18-.13-.34-.3-.45-.5-.11-.19-.16-.4-.16-.63,0-.38.15-.75.44-1.09.29-.35.67-.65,1.15-.91s1.02-.47,1.62-.63,1.21-.23,1.84-.23c.54,0,1.04.06,1.49.18s.83.29,1.15.52.56.49.73.8c.17.31.26.65.26,1.02l-.03-.04h0ZM105.08,101.79c.15,0,.34.04.58.11.24.07.49.16.74.28.26.12.5.25.73.39.23.15.42.29.57.44-.46.05-1.05.21-1.76.49s-1.44.64-2.19,1.09-1.49.97-2.19,1.55c-.71.59-1.3,1.21-1.78,1.88.65-.52,1.35-.96,2.09-1.33.36-.18.73-.32,1.09-.43.36-.11.71-.17,1.04-.17.28.11.56.25.83.43.28.18.53.37.75.57.22.21.41.42.56.66.15.23.22.46.22.69,0,.3-.11.64-.33,1.01s-.51.75-.86,1.12c-.36.38-.77.74-1.23,1.09-.46.35-.94.67-1.42.94-.48.28-.96.5-1.44.66-.48.17-.9.25-1.27.25-1.03-.16-1.87-.45-2.53-.87-.65-.42-.98-.99-.98-1.69,0-.58.13-1.19.39-1.82s.61-1.26,1.04-1.89c.44-.62.95-1.23,1.53-1.82s1.2-1.12,1.85-1.61c.66-.48,1.32-.9,1.99-1.26s1.33-.62,1.96-.78l.02.02h0ZM103.97,106.8c-.82.2-1.57.47-2.24.81s-1.25.71-1.74,1.12c-.48.41-.86.83-1.13,1.27-.27.44-.41.87-.41,1.28,0,.15.03.31.1.47s.16.31.28.45c.12.14.26.27.42.38.16.12.32.19.5.23.53-.19,1.08-.48,1.66-.87s1.1-.82,1.59-1.29c.48-.47.88-.94,1.2-1.43s.48-.93.48-1.32c0-.47-.28-.9-.7-1.1,0,0-.01,0-.01,0Z" /><path class="st9" d="M57.27,82.3c.34,0,.74.05,1.2.14s.88.21,1.25.35.69.29.94.45c.26.16.38.3.38.43-.68,1.09-1.31,2.18-1.89,3.28-.58,1.1-1.07,2.15-1.48,3.16s-.72,1.95-.94,2.83c-.22.88-.33,1.64-.33,2.29,0,.72.1,1.33.31,1.8.2.48.54.82,1.02,1.03-.41.21-.94.37-1.58.5s-1.22.19-1.73.19c-1.84,0-2.75-.96-2.75-2.87,0-1.47.65-3.49,1.94-6.05-.68,1.18-1.46,2.3-2.35,3.34-.88,1.04-1.79,1.96-2.7,2.76-.92.8-1.84,1.45-2.78,1.95s-1.79.8-2.58.91c-1.26,0-2.28-.43-3.06-1.3-.78-.87-1.17-1.98-1.17-3.33,0-1.45.41-2.99,1.22-4.59.82-1.61,1.86-3.1,3.14-4.48,1.28-1.38,2.66-2.52,4.16-3.44,1.09-.67,2.16-1.1,3.2-1.28.77-.14,1.58-.02,2.27.36h0c.42.23.83.5,1.22.81s.72.63.99.95.42.6.46.83c-1.36.16-2.76.66-4.21,1.51-1.44.85-2.75,1.88-3.93,3.07s-2.13,2.48-2.88,3.85-1.12,2.64-1.12,3.83c0,.49.24.8.71.93.99-.16,2.12-.79,3.42-1.92,1.29-1.12,2.86-2.86,4.69-5.21.34-.47.72-.98,1.15-1.55s.86-1.16,1.3-1.78c.44-.62.87-1.25,1.3-1.88.42-.63.82-1.25,1.2-1.84v-.03h0ZM68.33,80.1c.61-.67,1.59-.86,2.38-.41.39.22.78.5,1.15.84.4.37.75.75,1.05,1.16.49.67.5,1.56.04,2.25-.3.45-.66.93-1.08,1.46-.78.98-1.56,1.98-2.35,3-.73.95-1.44,1.92-2.12,2.91-.63.92-.99,1.67-1.1,2.27.54-.44,1.15-.95,1.81-1.53.66-.58,1.31-1.16,1.94-1.74.63-.58,1.22-1.11,1.76-1.59s.97-.83,1.27-1.07c.65-.52,1.41-1.12,2.3-1.8.88-.69,1.81-1.33,2.78-1.94s1.95-1.12,2.93-1.55c.99-.43,1.89-.64,2.7-.64.88,0,1.62.23,2.22.68.59.45,1.06.92,1.4,1.42,0,.05-.13.12-.38.21-.26.09-.62.34-1.1.76-.48.47-1.01,1.1-1.61,1.92-.6.81-1.17,1.69-1.73,2.64-.56.94-1.03,1.91-1.4,2.89-.38.98-.56,1.87-.56,2.67,0,.65.11,1.06.33,1.24s.54.27.94.27c.37,0,.76-.07,1.17-.19.41-.13.73-.19.97-.19.14.05.25.16.33.33s.13.32.13.45c-.27.18-.6.36-.97.54-.38.18-.76.35-1.17.5s-.81.28-1.2.39c-.39.1-.74.16-1.05.16-.99,0-1.79-.11-2.42-.33s-1.12-.51-1.48-.87-.6-.79-.74-1.3c-.14-.5-.2-1.04-.2-1.61,0-.31.03-.66.1-1.05s.2-.85.41-1.38c.2-.53.49-1.16.87-1.9.37-.74.85-1.62,1.43-2.66-.07,0-.53.18-1.38.54s-1.77.92-2.75,1.67c-1.6,1.16-3.03,2.31-4.31,3.45-1.27,1.14-2.58,2.4-3.9,3.8-.75.8-1.4,1.48-1.96,2.04l-.12.12c-.85.81-2.28.7-2.9-.3v-.02c-.27-.45-.49-.91-.66-1.38-.08-.23-.11-.47-.09-.7.03-.42.12-.92.27-1.5.19-.75.44-1.58.77-2.5.32-.92.72-1.88,1.2-2.89s1-2.02,1.58-3.02c1.29-2.27,2.47-4.06,3.55-5.35.38-.46.93-1.15.93-1.15l.02-.02s0,0,0,0ZM103.69,82.3c.34,0,.74.05,1.2.14s.88.21,1.25.35.69.29.94.45c.26.16.38.3.38.43-.68,1.09-1.31,2.18-1.89,3.28s-1.07,2.15-1.48,3.16-.72,1.95-.94,2.83c-.22.88-.33,1.64-.33,2.29,0,.72.1,1.33.31,1.8.2.48.54.82,1.02,1.03-.41.21-.94.37-1.58.5s-1.22.19-1.73.19c-1.84,0-2.75-.96-2.75-2.87,0-1.47.65-3.49,1.94-6.05-.68,1.18-1.46,2.3-2.35,3.34-.88,1.04-1.79,1.96-2.7,2.76-.92.8-1.85,1.45-2.78,1.95-.94.5-1.79.8-2.58.91-1.26,0-2.28-.43-3.06-1.3s-1.17-1.98-1.17-3.33c0-1.45.41-2.99,1.22-4.59.82-1.61,1.86-3.1,3.14-4.48,1.28-1.38,2.66-2.52,4.16-3.44,1.09-.67,2.16-1.1,3.2-1.28.77-.14,1.58-.02,2.27.36h.01c.42.23.83.5,1.22.81s.72.63.99.95.42.6.46.83c-1.36.16-2.76.66-4.21,1.51-1.44.85-2.76,1.88-3.93,3.07-1.17,1.2-2.13,2.48-2.88,3.85s-1.12,2.64-1.12,3.83c0,.49.24.8.71.93.99-.16,2.12-.79,3.42-1.92,1.29-1.12,2.86-2.86,4.69-5.21.34-.47.72-.98,1.15-1.55s.86-1.16,1.3-1.78c.44-.62.87-1.25,1.3-1.88.42-.63.82-1.25,1.2-1.84v-.03h0ZM137,86.08c-.54,0-1.21.25-1.99.76s-1.62,1.15-2.53,1.94c-.9.79-1.84,1.66-2.81,2.62s-1.9,1.91-2.81,2.85c-.9.94-1.74,1.83-2.52,2.66-.42.45-.81.85-1.17,1.2-.55.54-1.39.63-2.06.24-.25-.15-.48-.31-.7-.49-.34-.29-.63-.62-.85-.99s-.3-.84-.19-1.27c.15-.62.35-1.26.58-1.92.31-.86.7-1.76,1.2-2.69s1.1-1.9,1.84-2.92c.73-1.02,1.62-2.1,2.68-3.23-.51,0-1.21.26-2.09.8-.88.53-1.84,1.22-2.86,2.06-1.02.84-2.07,1.79-3.16,2.83-2.18,2.09-4.25,4.3-6.2,6.62-.24.29-.46.55-.67.77-.62.69-1.7.78-2.38.15-.25-.23-.45-.47-.6-.72-.29-.48-.52-1.01-.68-1.59-.06-.2-.08-.41-.06-.62.05-.56.17-1.23.36-2.01.22-.93.54-1.89.94-2.87.78-1.89,1.79-3.76,3.03-5.62,1.01-1.51,1.99-2.93,2.95-4.24.41-.56,1.12-.82,1.79-.64.51.13.99.3,1.44.5.33.15.68.32,1.03.53.85.5,1.13,1.6.58,2.43-.23.34-.48.69-.77,1.05l-2.24,2.81c-.78.98-1.5,1.99-2.14,3.02-.65,1.03-1.07,2.08-1.28,3.14.95-1.03,2.08-2.22,3.39-3.57,1.29-1.32,2.63-2.59,4.03-3.8,1.38-1.19,2.75-2.2,4.11-3.02,1.36-.83,2.58-1.24,3.67-1.24.41,0,.85.05,1.33.16.48.1.92.23,1.33.39.41.16.75.3,1.02.45.27.14.42.25.46.33-.17.52-.57,1.22-1.2,2.11-.63.89-1.3,1.83-2.01,2.81-.71.98-1.38,1.93-1.99,2.85s-.97,1.65-1.07,2.19c1.67-1.73,3.23-3.3,4.69-4.71,1.46-1.41,2.84-2.62,4.13-3.62,1.29-1.01,2.49-1.78,3.6-2.33s2.15-.81,3.14-.81c.68,0,1.32.14,1.91.41h.02c.86.4,1.14,1.47.7,2.31-.27.51-.59,1.06-.98,1.66-.7,1.09-1.4,2.23-2.12,3.43-.71,1.2-1.35,2.38-1.91,3.55s-.84,2.21-.84,3.14c0,.54.1.9.31,1.07.2.17.49.25.87.25.41,0,.79-.06,1.15-.17.36-.12.62-.17.79-.17.2.1.32.23.36.39.03.16.05.3.05.43-.68.41-1.38.76-2.09,1.03s-1.51.41-2.4.41c-.82,0-1.49-.1-2.01-.31-.53-.21-.96-.49-1.3-.85s-.58-.77-.71-1.24c-.14-.46-.2-.97-.2-1.51,0-.88.15-1.75.46-2.61.31-.86.67-1.69,1.1-2.48.42-.79.87-1.52,1.35-2.21.48-.68.88-1.3,1.22-1.84l-.02-.04h0ZM161.58,82.3c.34,0,.74.05,1.2.14.46.09.88.21,1.25.35s.69.29.94.45c.26.16.38.3.38.43-.68,1.09-1.31,2.18-1.89,3.28s-1.07,2.15-1.48,3.16c-.41,1.01-.72,1.95-.94,2.83-.22.88-.33,1.64-.33,2.29,0,.72.1,1.33.31,1.8.2.48.54.82,1.02,1.03-.41.21-.94.37-1.58.5s-1.22.19-1.73.19c-1.84,0-2.75-.96-2.75-2.87,0-1.47.65-3.49,1.94-6.05-.68,1.18-1.46,2.3-2.35,3.34-.88,1.04-1.79,1.96-2.7,2.76-.92.8-1.84,1.45-2.78,1.95s-1.79.8-2.58.91c-1.26,0-2.28-.43-3.06-1.3s-1.17-1.98-1.17-3.33c0-1.45.41-2.99,1.22-4.59.82-1.61,1.86-3.1,3.14-4.48,1.28-1.38,2.66-2.52,4.16-3.44,1.09-.67,2.16-1.1,3.2-1.28.77-.14,1.58-.02,2.27.36h0c.42.23.83.5,1.22.81s.72.63.99.95.42.6.46.83c-1.36.16-2.76.66-4.21,1.51-1.44.85-2.75,1.88-3.93,3.07s-2.13,2.48-2.88,3.85-1.12,2.64-1.12,3.83c0,.49.24.8.71.93.99-.16,2.12-.79,3.42-1.92,1.29-1.12,2.86-2.86,4.69-5.21.34-.47.72-.98,1.15-1.55s.86-1.16,1.3-1.78c.44-.62.87-1.25,1.3-1.88.42-.63.82-1.25,1.2-1.84v-.03h0ZM44.78,73.96c-.58-.93-1.41-1.73-2.5-2.4s-2.41-1.19-3.98-1.57c-1.56-.37-3.32-.56-5.25-.56-1.63,0-3.34.09-5.13.27s-3.51.43-5.18.76c-1.67.32-3.23.7-4.69,1.14s-2.69.92-3.67,1.43c.03.31.15.66.36,1.05.2.39.44.77.71,1.14.27.38.57.72.89,1.03s.64.54.94.7c.88-.57,2-1.11,3.34-1.63,1.14-.44,2.37-.83,3.69-1.17.32-.08.61.24.48.54l-.55,1.41c-.26.65-.54,1.3-.84,1.96-.31.66-.66,1.36-1.07,2.11s-.88,1.63-1.43,2.64c-1.22,2.2-2.29,4.11-3.19,5.76-.9,1.64-1.69,3.05-2.37,4.23-.68,1.18-1.26,2.16-1.73,2.97-.4.68-.76,1.25-1.06,1.7-.1.14-.09.33.02.47.63.78,1.32,1.43,2.06,1.96.74.52,1.66.91,2.79,1.15.21.04.42-.08.47-.28.6-2.11,1.41-4.29,2.42-6.52,1.02-2.25,2.32-4.71,3.92-7.37.13-.21.41-.26.61-.12.47.34.89.57,1.29.71.49.17,1.16.25,2.02.25,2.38,0,4.63-.28,6.76-.85s3.98-1.34,5.56-2.31,2.84-2.1,3.77-3.39,1.4-2.65,1.4-4.07c0-1.14-.29-2.17-.87-3.1v-.04h0ZM42.35,79.7c-.87.88-2.07,1.65-3.62,2.31-1.55.66-3.41,1.18-5.58,1.55-1.96.34-4.12.52-6.47.56-.33,0-.54-.37-.36-.65.67-1.05,1.3-2.06,1.91-3.03.73-1.16,1.4-2.22,2.01-3.16s1.17-1.75,1.68-2.42c.51-.67.94-1.18,1.28-1.51.38-.38.68-.65.89-.83.84-.06,1.67-.1,2.48-.1,2.35,0,4.11.41,5.3,1.22s1.79,1.89,1.79,3.24c0,1.01-.43,1.95-1.3,2.83h-.01Z" /><path class="st11" d="M121.52,48.99c-3.82,1.61-7.15-1.17-12.14,2.91l-3.83,10.38,25.53.2c2.09-4.43,3.63-9.15,4.29-14.1-5.54-3.65-11.49-.96-13.85.6h0Z" /><path class="st11" d="M66.37,54.34c-2.77-.55-3.59,0-5.8-1.2-4.64-3.96-16.21-7.38-20.89.21.79,3.17,1.92,6.15,3.33,9.04h26.32l-2.98-8.03h.01v-.02Z" /><path class="st10" d="M48.67,71.47l17.41-9.2h-23.12c1.6,3.29,3.39,6.39,5.7,9.19h0Z" /><path class="st10" d="M125.5,71.48h.01c2.31-2.81,4.1-5.9,5.7-9.2h-23.12l17.41,9.2h0Z" /><path class="st0" d="M133.44,56.5h0c-7.91.96-20.32,3.93-27.16,3.99l-.73,1.97c9.55.09,25.43.24,25.43.24.99-2,1.79-4,2.49-6.2h-.04s0,0,0,0Z" /><path class="st0" d="M68.05,58.97c-2.64-.37-5.4-1.16-8.62-2.98-3.49-1.39-4.88-.15-6.53.53-1.79.79-8.51-4.79-13.2-3.19.79,3.19,1.87,6.28,3.39,9.17,0-.21,14.65.25,26.35.25l-1.38-3.77h-.01Z" /><path class="st2" d="M108.05,39.51c-.6-3.14-1.42-6.13-2.6-8.85-.3-.7-1.1-1.2-2.02-1.2h-32.44c-1.01,0-1.81.5-2.11,1.3-1.05,2.77-1.84,5.69-2.46,8.71,18.98-2.65,35.87-.76,41.63.05h0Z" /><path class="st4" d="M92.48,24.55h-10.49l2.2-6.8h5.99l2.3,6.8Z" /><path class="st2" d="M91.49,21.55h-8.53l.39-1.3h7.7l.44,1.3Z" /><path class="st5" d="M85.09,32.24h4.4v2.5h-4.4v-2.5ZM93.29,32.24h4.29v2.39h-4.29v-2.39ZM76.9,32.24h4.29v2.39h-4.29v-2.39ZM73.5,34.64h-3.7l.9-2.4h2.8s0,2.4,0,2.4ZM104.77,34.64h-3.59v-2.4h2.79s.8,2.4.8,2.4Z" /><path class="st2" d="M110.79,47.83s-14.37-6.5-23.45-8.89c0,.1-12.66,4.09-23.45,8.89l8.87,24.18,14.17,1.03,14.03-1.03h1.04l8.87-24.18h-.1.02Z" /><path class="st3" d="M87.38,38.94l-.4,34.11,15.09-1.03,8.8-24.18s-16.99-7.3-23.49-8.89h0Z" /><path class="st5" d="M69.02,36.63c.11-.34.4-.56.75-.58,3.21-.21,19.45-1.16,35.05,0,.36.03.65.28.76.62v.02c.15.56-.28,1.1-.85,1.07-4.26-.25-19.41-1.03-34.83,0-.6.04-1.05-.54-.85-1.1v-.03h-.03Z" /><path class="st12" d="M104.01,72.19c-2.62-.57-1.36-.16-3.03-.95-2.69-2.15-4.94-2.05-4.94-2.05-4.37.13-7.26,2.42-8.44,3.57-.48.25-.9.16-1.22,0-1.18-1.15-4.08-3.44-8.45-3.57,0,0-2.25-.1-4.94,2.05-1.67.78-.41.37-3.03.95.04,0-.56.91,2.07.85,2.45-.18,9.21-1.01,13.91.96.67.28,1.41.28,2.08,0,4.7-1.96,11.46-1.14,13.91-.96,2.62.06,2.04-.84,2.07-.85h.02-.02.01Z" /><path class="st6" d="M64.5,40.74l1.07,6.37c10.39-4.46,21.81-8.07,21.81-8.16,7.12,1.87,17.49,6.27,21.66,8.08l.92-6.29c0-.5-.4-1-1-1.09-4.7-.7-22.99-3.09-43.47,0-.7,0-1.09.6-1,1.09,0,0,.01,0,.01,0Z" /><path class="st5" d="M63.8,47.54c-.1,0,.5,1.8.6,1.7,0,0,12.17-6.3,22.95-8.39,0,0,12.12,2.89,23.01,8.5l.7-1.7s-13.73-6.04-23.62-8.74c-.69.15-14.77,4.18-23.63,8.64h-.01Z" /><path class="st6" d="M102.26,24.65c-.19-.5-.89-.9-1.59-.9h-26.88c-.69,0-1.39.31-1.59.9l-.8,2h31.67l-.8-2h-.01Z" /><path class="st5" d="M104.67,30.65h-35.07c-.4,0-.9-.3-1-.7l-.7-1.8c-.3-.7.2-1.5,1-1.5h36.87c.9,0,1.4.9.9,1.7l-1.09,1.8c-.2.3-.6.5-.9.5h-.01Z" /><path class="st8" d="M64.5,40.74c-.1-.5.3-1.09,1-1.09.31-.05.61-.08.92-.13v-.06l.15-.69.14-.67c.57-2.53,1.27-4.99,2.16-7.35.04-.11.11-.19.17-.28-.21-.13-.37-.31-.43-.52l-.7-1.8c-.3-.7.2-1.5,1-1.5h2.5l.8-2c.2-.6.9-.9,1.59-.9h8.45l.71-2.19c-2.33-5.47-7.75-9.29-14.06-9.29-8.44,0-15.29,6.84-15.29,15.29,0,7,4.72,12.89,11.14,14.7l-.25-1.51h0Z" /><g><polygon class="st5" points="78.42 47.71 81.84 46.55 81.84 48.28 78.42 49.29 78.42 47.71" /><polygon class="st5" points="73.86 49.25 76.95 48.19 76.95 49.76 73.86 50.68 73.86 49.25" /><polygon class="st5" points="96.01 47.71 92.6 46.55 92.6 48.28 96.01 49.29 96.01 47.71" /><polygon class="st5" points="100.58 49.25 97.48 48.19 97.48 49.76 100.58 50.68 100.58 49.25" /></g><path class="st8" d="M167.34,73.98c-.56-1.21-1.36-2.25-2.39-3.1-1.23-1.01-2.62-1.48-4.23-1.26-1.29.17-2.52.53-3.7,1.06-1.29.59-2.55,1.23-3.83,1.84-.22.1-.45.2-.67.3-.06,0-.05-.03-.04-.06.07-.09.15-.18.21-.28.12-.18.25-.35.34-.54.05-.31.57-.83.54-.88-.45,0-.92.15-1.23.26-.03,0-.07,0-.1,0-.85.1-1.61.44-2.32.91-.19.12-.33.13-.5,0-.06-.04-.14-.07-.19-.13-.32-.34-.65-.67-.95-1.03-.53-.64-1.01-1.31-1.56-1.93-.97-1.11-2.16-1.89-3.64-2.16-1.13-.21-2.27-.17-3.4,0-3.28.5-6.33,1.65-9.23,3.22-.16.09-.31.2-.46.31-.05.04-.09.12-.09.17.01.05.1.1.16.11.16.03.31.05.47.05,1.09-.02,2.18-.06,3.27-.06.92-.01,1.83-.02,2.74.02,1.5.07,2.98-.08,4.46-.23,1.44-.15,2.76.19,3.9,1.1,1.1.88,1.91,2,2.58,3.23.42.75.42.76.05,1.54-.32.7-.72,1.34-1.42,1.74-.2.11-.36.31-.5.51-.34.5-.16.89.44.99.75.13,1.36-.12,1.85-.69.45-.52.94-1.01,1.5-1.42.64-.46,1.07-1.12,1.51-1.76.1-.14.23-.27.37-.37.69-.47,1.45-.81,2.28-.92,1.48-.2,2.88-.66,4.27-1.17,1.18-.44,2.39-.75,3.65-.83,2.03-.13,3.85.37,5.38,1.77.14.12.27.25.42.36.05.04.13.03.19.05.02-.06.04-.13.04-.19-.04-.18-.09-.36-.17-.53Z" /></svg>