<svg width="1512" height="1296" viewBox="0 0 1512 1296" fill="none" xmlns="http://www.w3.org/2000/svg">
<path d="M1074.84 681.9C1082.52 686.52 1087.08 689.4 1091.4 692.16C1097.76 690.9 1171.08 678.42 1172.22 677.58C1243.56 166.92 492.84 100.2 423.24 589.92C414.84 664.86 421.14 736.5 479.22 832.38C600.48 717.54 767.7 651.54 934.68 652.32C953.04 652.38 1027.2 653.28 1074.72 681.84L1074.84 681.9Z" fill="url(#paint0_linear_1864_2)"/>
<path d="M1502.64 677.1C941.82 659.28 434.76 962.1 346.14 1019.88C339.96 1023.9 335.82 1036.68 333.9 1038.18C333.78 1038.24 333.9 1038.48 334.02 1038.42C753.12 811.8 1313.22 744.78 1380.9 737.34C1383.9 737.04 1386.06 740.1 1384.74 742.8C1350.78 812.34 1293.36 897.06 1278.66 918.42C1277.1 920.64 1278.36 923.7 1281 924.3L1327.44 940.98C1328.82 941.28 1330.2 940.8 1331.1 939.78C1406.76 852.42 1488.96 712.2 1505.82 682.86C1507.26 680.4 1505.52 677.22 1502.64 677.16V677.1Z" fill="#006684"/>
<path d="M1329.9 979.98C1194.36 910.92 1018.86 911.28 878.88 968.34C741.12 1024.44 595.5 1074.9 449.04 1102.68C383.7 1115.1 303.54 1128.78 240.12 1101.12C239.52 1100.76 238.86 1100.64 238.2 1101.12C237.48 1101.66 237.3 1102.62 237.84 1103.34C271.02 1143.66 338.52 1159.2 388.32 1166.28C513.6 1180.44 640.14 1160.4 760.26 1124.82C877.38 1090.08 985.14 1034.1 1107.96 1020.42C1231.14 1006.74 1349.76 1031.94 1459.62 1087.92C1460.16 1088.22 1460.88 1088.16 1461.42 1087.74C1462.14 1087.2 1462.26 1086.12 1461.66 1085.46C1426.8 1042.2 1381.32 1006.2 1329.96 979.98H1329.9Z" fill="#7ACCC8"/>
<path d="M1291.44 1093.2C1195.8 1057.98 1075.08 1046.94 977.64 1080.9C951.84 1090.5 931.38 1101.84 906.66 1110.9C835.32 1137.9 762.48 1154.16 686.58 1169.52C685.92 1169.64 685.38 1170.12 685.26 1170.84C685.08 1171.74 685.68 1172.58 686.52 1172.76C699.54 1175.28 712.56 1176.72 725.7 1177.62C778.38 1181.1 831.6 1176.3 883.08 1164C915.24 1156.32 947.1 1144.74 976.98 1130.52C1026.66 1108.32 1081.26 1100.58 1137.54 1096.56C1187.76 1093.32 1238.88 1094.1 1290.72 1096.32C1291.38 1096.32 1292.1 1095.96 1292.34 1095.3C1292.64 1094.46 1292.28 1093.56 1291.44 1093.2Z" fill="#0EA3C4"/>
<path d="M297 1067.46C296.7 1061.28 296.34 1055.16 295.92 1049.1C297.48 1012.92 305.46 918.06 346.14 844.32C346.14 844.32 380.52 855.84 371.82 912.48C371.82 912.48 401.94 885 395.88 842.46C395.88 842.46 409.86 845.1 428.16 884.22C428.16 884.22 443.94 833.94 397.5 806.94C397.5 806.94 403.98 783.06 444.06 787.62C444.06 787.62 406.44 759.06 372.54 780.96C372.54 780.96 365.58 732.36 329.7 732.24C329.7 732.24 347.76 770.22 340.02 783.12C340.02 783.12 304.68 757.68 272.88 803.22C272.88 803.22 314.22 798.36 326.16 807.84C326.16 807.84 276.24 816.96 272.76 858.54C272.76 858.54 301.8 832.38 333.96 838.8C333.96 838.8 306.54 872.04 284.76 942.78C256.32 747 193.86 623.34 193.86 623.34C250.68 614.7 299.34 662.82 299.34 662.82C296.64 589.8 210.12 569.76 210.12 569.76C231.78 554.1 303.72 565.98 303.72 565.98C251.82 483.78 187.98 525.42 187.98 525.42C175.56 502.14 210.18 437.28 210.18 437.28C147.42 434.58 131.28 519 131.28 519C73.7397 477.9 5.69971 524.88 5.69971 524.88C76.1397 520.2 85.4997 562.44 85.4997 562.44C2.15971 605.88 25.6197 695.04 25.6197 695.04C60.8397 628.14 85.4997 624.6 85.4997 624.6C71.3997 698.52 121.86 748.98 121.86 748.98C111.3 649.2 172.32 631.8 172.32 631.8C254.46 798.66 238.02 1071.72 238.02 1071.72C276.48 1096.38 297 1067.34 297 1067.34V1067.46Z" fill="#0EA3C4"/>
<path d="M702.72 486.841C693.24 487.141 683.4 492.961 680.1 497.281C679.26 498.361 677.88 498.001 676.86 497.101C659.1 481.081 631.08 484.561 617.28 490.501C615.42 491.281 615.84 494.281 617.88 494.341C659.7 495.181 671.34 510.541 675.78 517.861C676.98 519.781 679.8 519.901 680.94 517.921C691.68 499.321 713.94 496.441 726.36 496.261C728.4 496.261 728.88 493.741 727.26 492.481C722.46 488.821 712.14 486.601 702.84 486.841H702.72Z" fill="white"/>
<path d="M821.64 375.9C815.16 371.04 801.3 367.98 788.76 368.34C775.98 368.7 762.78 376.56 758.28 382.38C757.14 383.88 755.28 383.4 753.9 382.14C730.02 360.54 692.34 365.22 673.68 373.26C671.16 374.34 671.76 378.36 674.46 378.42C730.74 379.5 746.34 400.26 752.4 410.1C754.02 412.74 757.8 412.86 759.36 410.16C773.82 385.14 803.76 381.24 820.44 381C823.2 381 823.86 377.58 821.64 375.9Z" fill="white"/>
<path d="M917.64 448.62C908.16 448.92 898.32 454.74 895.02 459.06C894.18 460.14 892.8 459.78 891.78 458.88C874.02 442.86 846 446.34 832.2 452.28C830.34 453.06 830.76 456.06 832.8 456.12C874.62 456.96 886.26 472.32 890.7 479.64C891.9 481.56 894.72 481.68 895.86 479.7C906.6 461.1 928.86 458.22 941.28 458.04C943.32 458.04 943.8 455.52 942.18 454.26C937.38 450.6 927.06 448.38 917.76 448.62H917.64Z" fill="white"/>
<path d="M1046.1 697.501C1046.4 698.881 1045.62 700.021 1042.92 700.681C1005.6 709.741 968.28 718.621 931.44 729.181C923.22 731.581 914.94 733.981 906.72 736.501C877.98 745.081 849.42 754.321 820.98 763.861C811.08 767.221 801.24 770.581 791.34 773.941C716.94 799.861 644.34 830.701 572.88 863.821C536.64 880.561 500.7 897.901 464.88 915.481C446.94 924.301 429.06 933.181 411.12 942.061C376.92 959.161 363.18 966.241 361.68 964.081C359.7 961.081 381.3 943.081 387.96 937.561C513.66 833.101 577.5 782.881 666.24 739.681C717.66 714.721 772.26 696.481 828.3 685.381C842.1 682.681 855.96 679.981 869.88 677.881C885.66 675.421 901.56 673.741 917.58 673.621C948.9 673.381 980.16 675.661 1011 681.241C1017.6 682.441 1024.26 683.881 1030.5 686.341C1035.12 688.201 1044.72 692.101 1046.1 697.501ZM995.64 698.881C993.42 698.341 991.2 696.901 989.1 696.061C984 693.961 978.72 692.161 973.38 690.721C950.28 684.541 926.52 685.561 902.88 687.121C878.58 688.741 854.64 693.361 830.82 698.101C825.96 699.061 821.16 700.081 816.36 701.161L847.08 741.601C875.58 732.301 902.22 724.081 927.84 716.701C955.86 708.721 967.62 705.721 995.64 698.881ZM832.2 746.461L802.32 704.461C797.16 705.661 792.06 706.981 786.96 708.361L784.44 709.081L812.82 752.941L816.84 751.561C816.84 751.561 816.9 751.561 816.96 751.501C822.12 749.821 827.22 748.081 832.2 746.461ZM800.82 757.021L772.02 712.561C769.74 713.221 767.4 713.941 765.12 714.661C764.22 714.961 763.38 715.201 762.48 715.501L790.92 760.441L800.82 757.021Z" fill="#006684"/>
<path d="M989.1 696.061C991.2 696.901 993.42 698.341 995.64 698.881C967.62 705.721 955.86 708.721 927.84 716.701C902.22 724.081 875.58 732.301 847.08 741.601L816.36 701.161C821.16 700.081 825.96 699.061 830.82 698.101C854.64 693.361 878.58 688.741 902.88 687.121C926.52 685.561 950.28 684.541 973.38 690.721C978.72 692.161 984 693.961 989.1 696.061Z" fill="white"/>
<path d="M802.32 704.461L832.2 746.461C827.22 748.081 822.12 749.821 816.96 751.501C816.96 751.501 816.92 751.521 816.84 751.561L812.82 752.941L784.44 709.081L786.96 708.361C792.06 706.981 797.16 705.661 802.32 704.461Z" fill="white"/>
<path d="M772.02 712.561L800.82 757.021L790.92 760.441L762.48 715.501C763.38 715.201 764.22 714.961 765.12 714.661C767.4 713.941 769.74 713.221 772.02 712.561Z" fill="white"/>
<path d="M344.16 434.7L334.14 463.02L348.24 468L357.36 442.26L376.02 448.86L366.9 474.6L400.2 486.36L391.92 509.82L307.14 479.82L325.44 428.04L344.1 434.64L344.16 434.7Z" fill="#006683"/>
<path d="M448.5 368.28C450.84 381.18 447.54 395.34 440.1 407.46C432.66 419.58 421.56 428.94 408.96 432.72C395.82 436.62 382.56 434.22 372.48 428.04C362.28 421.8 354 411 351.66 397.56C349.32 384.66 352.62 370.5 360.06 358.38C367.5 346.26 378.6 336.9 391.2 333.12C404.22 329.16 417.6 331.62 427.8 337.86C437.88 344.04 446.04 354.78 448.5 368.28ZM375.3 390.48C376.62 397.38 380.94 402.9 386.34 406.2C393.12 410.34 399.9 409.8 404.58 408.48C410.52 406.74 416.46 402.78 420.84 395.7C425.28 388.5 426.18 381.6 424.92 375.6C423.72 369.6 420.12 363.54 414.3 359.94C408.3 356.28 401.34 355.86 395.52 357.54C388.74 359.58 382.8 364.56 379.38 370.2C375.78 376.08 373.92 383.52 375.3 390.48Z" fill="#006683"/>
<path d="M435.66 265.741C440.7 260.581 447.9 254.821 457.74 254.581C465.3 254.341 472.8 257.881 477.9 262.861C483.36 268.261 486.18 274.981 485.94 281.401C485.7 286.441 483.66 291.421 481.08 295.201L528.36 299.521L506.7 321.601L465.36 314.521L490.02 338.641L472.62 356.401L408.42 293.521L435.6 265.801L435.66 265.741ZM454.68 303.841L457.98 300.481C460.62 297.841 463.62 293.341 463.86 289.321C463.86 286.741 462.72 283.741 460.68 281.761C458.76 279.901 455.82 278.641 453 278.821C449.88 278.941 445.98 280.981 442.14 284.881L438.84 288.241L454.74 303.781L454.68 303.841Z" fill="#006683"/>
<path d="M524.94 216.721L565.8 273.661L545.58 288.181L504.72 231.241L488.16 243.121L476.64 227.041L530.04 188.761L541.56 204.841L525 216.721H524.94Z" fill="#006683"/>
<path d="M612.66 148.74L637.98 214.08L665.88 203.28L673.02 221.76L621.96 241.56L589.5 157.8L612.66 148.8V148.74Z" fill="#006683"/>
<path d="M752.82 191.4L718.38 196.2L714.06 212.04L688.02 215.7L712.02 121.56L738.9 117.78L787.079 201.84L760.74 205.5L752.82 191.34V191.4ZM743.82 174.72L729.12 147.36L722.76 177.66L743.82 174.72Z" fill="#006683"/>
<path d="M825.42 115.02L821.22 168.06C820.92 171.84 820.62 177.6 825 182.28C827.64 185.04 832.14 187.14 836.4 187.5C840.66 187.86 845.28 186.6 848.16 184.5C854.28 180.24 854.64 173.64 855.06 168.72L859.08 117.66L883.86 119.64L879.78 171.06C879.06 180.48 877.86 190.26 866.76 199.2C858.12 206.22 847.8 208.92 834.36 207.84C819.3 206.64 808.98 200.94 803.52 194.58C795.9 185.46 795.78 173.94 796.56 164.4L800.64 112.98L825.42 114.96V115.02Z" fill="#006683"/>
<path d="M889.32 211.68L914.4 125.4L945.72 134.52C954.96 137.22 970.08 142.86 978.84 157.02C986.76 169.86 985.26 182.88 982.5 192.18C979.2 203.58 973.2 212.76 961.8 218.58C952.5 223.32 938.4 225.96 922.68 221.4L889.32 211.68ZM918.72 199.62L923.52 201C929.34 202.68 937.62 204.54 945.48 200.64C949.32 198.78 954.9 194.52 957.66 184.98C960 176.94 959.34 169.32 955.98 163.98C951.78 157.44 944.46 154.74 938.52 153L932.7 151.32L918.66 199.56L918.72 199.62Z" fill="#006683"/>
<path d="M1057.8 201.06L1031.22 188.04L1024.62 201.48L1049.76 213.84L1041.06 231.6L1015.92 219.24L1009.08 233.16L1035.66 246.18L1026.96 263.94L978.06 239.94L1017.66 159.24L1066.56 183.24L1057.86 201L1057.8 201.06Z" fill="#006683"/>
<path d="M1127.22 224.22C1132.98 228.54 1139.64 234.96 1141.08 244.68C1142.28 252.18 1139.7 260.04 1135.44 265.74C1130.82 271.86 1124.46 275.52 1118.04 276.06C1113 276.48 1107.78 275.1 1103.76 273.06L1105.5 320.52L1080.84 301.86L1082.64 259.98L1061.82 287.52L1042.02 272.52L1096.26 200.82L1127.22 224.22ZM1091.76 247.98L1095.54 250.86C1098.54 253.14 1103.34 255.6 1107.36 255.24C1109.88 255 1112.7 253.38 1114.44 251.1C1116.06 248.94 1116.96 245.88 1116.36 243.12C1115.82 240 1113.3 236.4 1108.98 233.1L1105.2 230.22L1091.76 247.98Z" fill="#006683"/>
<path d="M1113.3 328.62L1183.08 271.98L1203.66 297.3C1209.72 304.8 1218.9 318.06 1218 334.68C1217.22 349.74 1208.52 359.58 1201.02 365.7C1191.84 373.2 1181.64 377.34 1168.98 375.6C1158.66 374.16 1145.58 368.34 1135.26 355.62L1113.36 328.62H1113.3ZM1144.38 335.46L1147.56 339.36C1151.34 344.04 1157.1 350.28 1165.8 351.6C1170 352.26 1177.02 351.96 1184.76 345.66C1191.24 340.38 1195.08 333.78 1195.32 327.48C1195.56 319.68 1191.12 313.32 1187.22 308.52L1183.44 303.84L1144.38 335.52V335.46Z" fill="#006683"/>
<path d="M1208.58 447.78L1194 416.22L1177.56 416.7L1166.52 392.82L1263.54 388.5L1274.94 413.16L1208.52 483.66L1197.36 459.54L1208.58 447.84V447.78ZM1221.96 434.28L1243.86 412.26L1213.02 414.96L1221.96 434.28Z" fill="#006683"/>
<path d="M1303.08 504.961L1234.44 518.941L1240.38 548.221L1221 552.181L1210.08 498.541L1298.16 480.601L1303.14 504.961H1303.08Z" fill="#006683"/>
<path d="M1293.78 619.14L1292.88 589.56L1277.94 590.04L1278.78 618.06L1258.98 618.66L1258.14 590.64L1242.66 591.12L1243.56 620.7L1223.76 621.3L1222.08 566.88L1311.9 564.12L1313.58 618.54L1293.78 619.14Z" fill="#006683"/>
<path d="M914.1 938.639L847.44 961.979L860.76 932.519C865.5 922.019 868.68 913.259 870.48 905.459C871.5 901.199 872.28 896.279 870.48 890.939C870.18 890.039 868.62 885.719 865.2 883.859C863.46 882.899 860.94 882.539 858.24 883.499C854.76 884.699 852.96 887.159 852.18 889.379C851.1 892.679 851.88 897.719 852.78 900.659L830.46 908.459C826.8 897.599 828.78 888.059 831.6 882.179C835.26 874.619 841.68 868.559 852 864.959C864.48 860.579 873.36 862.919 878.46 865.379C883.02 867.539 889.98 872.279 893.7 882.959C897.36 893.399 895.02 902.339 890.04 911.939L880.62 929.819L907.8 920.279L914.22 938.579L914.1 938.639Z" fill="#EF6E25"/>
<path d="M1006.86 906.06C1001.28 913.92 993.18 918.72 984.72 920.22C976.26 921.72 967.02 920.04 959.04 914.58C949.86 908.28 942.6 896.76 939.9 881.52C937.14 866.16 940.02 852.84 946.44 843.78C952.02 835.98 960.12 831.18 968.58 829.62C977.04 828.06 986.28 829.8 994.26 835.26C1003.44 841.5 1010.7 853.08 1013.46 868.44C1016.16 883.62 1013.34 897 1006.92 906.06H1006.86ZM965.76 853.8C961.8 858.66 960.84 869.7 962.28 877.74C963.48 884.64 967.98 895.5 973.86 898.98C975.84 900.24 978.66 900.96 981.24 900.48C983.82 900 986.22 898.38 987.66 896.52C991.74 891.54 992.52 880.08 991.2 872.7C989.82 865.02 984.9 854.52 979.62 851.34C977.64 850.08 974.82 849.36 972.24 849.84C969.66 850.32 967.26 851.94 965.82 853.8H965.76Z" fill="#EF6E25"/>
<path d="M1126.14 908.1L1055.52 908.88L1077.6 885.24C1085.4 876.84 1091.28 869.52 1095.42 862.74C1097.76 859.02 1100.1 854.64 1100.04 848.94C1100.04 848.04 1099.98 843.42 1097.28 840.54C1095.96 839.1 1093.68 837.96 1090.8 837.96C1087.08 837.96 1084.62 839.76 1083.18 841.62C1081.08 844.44 1080.24 849.42 1080.12 852.48L1056.48 852.72C1056.48 841.2 1061.4 832.86 1065.96 828.18C1071.84 822.18 1079.82 818.52 1090.8 818.4C1104 818.28 1111.74 823.32 1115.7 827.22C1119.3 830.76 1124.4 837.42 1124.52 848.76C1124.64 859.86 1119.6 867.54 1111.74 875.04L1097.1 888.96L1125.9 888.66L1126.14 908.04V908.1Z" fill="#EF6E25"/>
<path d="M1234.92 851.34L1204.74 847.02L1201.8 856.44C1205.16 856.44 1207.8 856.62 1208.94 856.8C1220.58 858.48 1227.24 863.94 1230.72 868.74C1234.08 873.24 1237.14 880.44 1235.7 890.52C1234.2 900.96 1228.98 907.44 1224.18 911.16C1214.88 918.36 1203.96 918.24 1195.62 917.04C1182.42 915.12 1173.78 910.44 1167.36 904.98L1173.78 884.28C1177.74 889.14 1181.88 891.96 1183.2 892.86C1186.86 895.26 1191.54 897.12 1195.86 897.72C1200.42 898.38 1204.86 897.42 1207.86 895.02C1210.14 893.22 1212 890.28 1212.54 886.62C1213.2 882.06 1211.4 878.58 1209.72 876.6C1205.64 871.74 1197.54 870.42 1194.66 870.06C1188.54 869.16 1183.08 869.76 1178.04 871.38L1192.38 825.54L1237.74 832.08L1234.98 851.28L1234.92 851.34Z" fill="#EF6E25"/>
<defs>
<linearGradient id="paint0_linear_1864_2" x1="798.66" y1="832.44" x2="798.66" y2="256.38" gradientUnits="userSpaceOnUse">
<stop stop-color="#F36D21"/>
<stop offset="0.56" stop-color="#F6861F"/>
<stop offset="1" stop-color="#F99E1F"/>
</linearGradient>
</defs>
</svg>
